<?xml version="1.0" standalone="no"?><!DOCTYPE svg PUBLIC "-//W3C//DTD SVG 1.1//EN" "http://www.w3.org/Graphics/SVG/1.1/DTD/svg11.dtd"><svg t="1745400463914" class="icon" viewBox="0 0 1024 1024" version="1.1" xmlns="http://www.w3.org/2000/svg" p-id="18552" xmlns:xlink="http://www.w3.org/1999/xlink" width="200" height="200"><path d="M544.371613 793.434839H254.348387c-13.212903 0-23.783226-10.570323-23.783226-23.783226V245.099355c0-13.212903 10.570323-23.783226 23.783226-23.783226h524.552258c13.212903 0 23.783226 10.570323 23.783226 23.783226v287.380645h47.566452V245.099355c0-39.63871-31.710968-71.349677-71.349678-71.349678H254.348387c-39.63871 0-71.349677 31.710968-71.349677 71.349678v524.552258c0 39.63871 31.710968 71.349677 71.349677 71.349677h290.023226v-47.566451z" p-id="18553"></path><path d="M348.820645 452.541935L443.953548 548.335484c7.927742 7.927742 21.140645 9.249032 30.389678 2.642581l206.781935-143.36c10.570323-7.267097 13.873548-22.461935 5.945807-33.032259-7.267097-10.570323-22.461935-13.873548-33.032258-5.945806L463.772903 500.108387 382.513548 418.849032c-9.249032-9.249032-24.443871-9.249032-33.692903 0-9.249032 9.249032-9.249032 24.443871 0 33.692903z" p-id="18554"></path><path d="M693.016774 610.436129l6.606452 23.783226c31.050323 0 55.494194 25.104516 55.494193 55.494193 0 31.050323-25.104516 55.494194-55.494193 55.494194-30.389677 0-55.494194-25.104516-55.494194-55.494194 0-31.050323 25.104516-55.494194 55.494194-55.494193l6.606451-23.783226-6.606451-23.783226c-56.815484 0-103.060645 46.245161-103.060645 103.060645s46.245161 103.060645 103.060645 103.060646 103.060645-46.245161 103.060645-103.060646-46.245161-103.060645-103.060645-103.060645v23.783226h-6.606452z" p-id="18555"></path><path d="M761.063226 769.651613l110.988387 126.843871 36.335484-31.050323-118.255484-134.110967" p-id="18556"></path></svg>